{
	"asset":{
		"generator":"Khronos glTF Blender I/O v4.5.47",
		"version":"2.0"
	},
	"scene":0,
	"scenes":[
		{
			"name":"Scene",
			"nodes":[
				0,
				1
			]
		}
	],
	"nodes":[
		{
			"mesh":0,
			"name":"Sphere",
			"scale":[
				0.20021826028823853,
				0.20021826028823853,
				0.20021826028823853
			],
			"translation":[
				0,
				0.0845489501953125,
				0
			]
		},
		{
			"name":"Empty",
			"rotation":[
				0.2603085935115814,
				0.7130763530731201,
				-0.5604006052017212,
				0.3312291204929352
			]
		}
	],
	"materials":[
		{
			"doubleSided":true,
			"name":"Material.001",
			"pbrMetallicRoughness":{
				"baseColorFactor":[
					0.8001965880393982,
					0.6206772327423096,
					0.15268482267856598,
					1
				],
				"metallicFactor":0,
				"roughnessFactor":0.5
			}
		},
		{
			"doubleSided":true,
			"name":"Material.002",
			"pbrMetallicRoughness":{
				"baseColorFactor":[
					0.0019584563560783863,
					0.0019584563560783863,
					0.0019584563560783863,
					1
				],
				"metallicFactor":0,
				"roughnessFactor":0.5
			}
		},
		{
			"doubleSided":true,
			"name":"Material.003",
			"pbrMetallicRoughness":{
				"baseColorFactor":[
					0.800070583820343,
					0.38319140672683716,
					0.08745405077934265,
					1
				],
				"metallicFactor":0,
				"roughnessFactor":0.5
			}
		}
	],
	"meshes":[
		{
			"name":"Sphere",
			"primitives":[
				{
					"attributes":{
						"POSITION":0,
						"NORMAL":1,
						"TEXCOORD_0":2
					},
					"indices":3,
					"material":0
				},
				{
					"attributes":{
						"POSITION":4,
						"NORMAL":5,
						"TEXCOORD_0":6
					},
					"indices":7,
					"material":1
				},
				{
					"attributes":{
						"POSITION":8,
						"NORMAL":9,
						"TEXCOORD_0":10
					},
					"indices":11,
					"material":2
				}
			]
		}
	],
	"accessors":[
		{
			"bufferView":0,
			"componentType":5126,
			"count":1960,
			"max":[
				1.1252543926239014,
				2.0306079387664795,
				1.3451637029647827
			],
			"min":[
				-1.1304186582565308,
				0.002268801676109433,
				-1.3451637029647827
			],
			"type":"VEC3"
		},
		{
			"bufferView":1,
			"componentType":5126,
			"count":1960,
			"type":"VEC3"
		},
		{
			"bufferView":2,
			"componentType":5126,
			"count":1960,
			"type":"VEC2"
		},
		{
			"bufferView":3,
			"componentType":5123,
			"count":11328,
			"type":"SCALAR"
		},
		{
			"bufferView":4,
			"componentType":5126,
			"count":1358,
			"max":[
				0.9428563714027405,
				1.5321052074432373,
				0.33268582820892334
			],
			"min":[
				0.860385000705719,
				1.3809174299240112,
				-0.33268579840660095
			],
			"type":"VEC3"
		},
		{
			"bufferView":5,
			"componentType":5126,
			"count":1358,
			"type":"VEC3"
		},
		{
			"bufferView":6,
			"componentType":5126,
			"count":1358,
			"type":"VEC2"
		},
		{
			"bufferView":7,
			"componentType":5123,
			"count":6048,
			"type":"SCALAR"
		},
		{
			"bufferView":8,
			"componentType":5126,
			"count":102,
			"max":[
				1.0686020851135254,
				1.3438479900360107,
				0.08585107326507568
			],
			"min":[
				1.0090337991714478,
				1.2545498609542847,
				-0.11515343934297562
			],
			"type":"VEC3"
		},
		{
			"bufferView":9,
			"componentType":5126,
			"count":102,
			"type":"VEC3"
		},
		{
			"bufferView":10,
			"componentType":5126,
			"count":102,
			"type":"VEC2"
		},
		{
			"bufferView":11,
			"componentType":5123,
			"count":480,
			"type":"SCALAR"
		}
	],
	"bufferViews":[
		{
			"buffer":0,
			"byteLength":23520,
			"byteOffset":0,
			"target":34962
		},
		{
			"buffer":0,
			"byteLength":23520,
			"byteOffset":23520,
			"target":34962
		},
		{
			"buffer":0,
			"byteLength":15680,
			"byteOffset":47040,
			"target":34962
		},
		{
			"buffer":0,
			"byteLength":22656,
			"byteOffset":62720,
			"target":34963
		},
		{
			"buffer":0,
			"byteLength":16296,
			"byteOffset":85376,
			"target":34962
		},
		{
			"buffer":0,
			"byteLength":16296,
			"byteOffset":101672,
			"target":34962
		},
		{
			"buffer":0,
			"byteLength":10864,
			"byteOffset":117968,
			"target":34962
		},
		{
			"buffer":0,
			"byteLength":12096,
			"byteOffset":128832,
			"target":34963
		},
		{
			"buffer":0,
			"byteLength":1224,
			"byteOffset":140928,
			"target":34962
		},
		{
			"buffer":0,
			"byteLength":1224,
			"byteOffset":142152,
			"target":34962
		},
		{
			"buffer":0,
			"byteLength":816,
			"byteOffset":143376,
			"target":34962
		},
		{
			"buffer":0,
			"byteLength":960,
			"byteOffset":144192,
			"target":34963
		}
	],
	"buffers":[
		{
			"byteLength":145152,
			"uri":"chicken.bin"
		}
	]
}
